<svg xmlns="http://www.w3.org/2000/svg" width="1600" height="1000" viewBox="0 0 1600 1000" role="img" aria-label="feature-i18n placeholder">
  <defs>
    <radialGradient id="glow" cx="50%" cy="40%" r="60%">
      <stop offset="0%" stop-color="#818CF8" stop-opacity="0.18"/>
      <stop offset="60%" stop-color="#818CF8" stop-opacity="0.03"/>
      <stop offset="100%" stop-color="#818CF8" stop-opacity="0"/>
    </radialGradient>
    <linearGradient id="cardGrad" x1="0" y1="0" x2="0" y2="1">
      <stop offset="0%" stop-color="#161616"/>
      <stop offset="100%" stop-color="#0A0A0A"/>
    </linearGradient>
  </defs>
  <rect width="1600" height="1000" fill="#0A0A0A"/>
  <rect width="1600" height="1000" fill="url(#glow)"/>
  
      <g transform="translate(360, 200)">
        <rect width="880" height="260" rx="12" fill="url(#cardGrad)" stroke="#2A2A2C" stroke-width="1.5"/>
        <rect width="880" height="34" rx="12" fill="#161616" stroke="#2A2A2C"/>
        <circle cx="18" cy="17" r="4" fill="#787880" fill-opacity="0.4"/>
        <circle cx="32" cy="17" r="4" fill="#787880" fill-opacity="0.4"/>
        <circle cx="46" cy="17" r="4" fill="#787880" fill-opacity="0.4"/>
        <rect x="40" y="70" width="30" height="14" rx="3" fill="#818CF8" fill-opacity="0.25"/><rect x="96" y="70" width="30" height="14" rx="3" fill="#818CF8" fill-opacity="0.43"/><rect x="152" y="70" width="30" height="14" rx="3" fill="#818CF8" fill-opacity="0.61"/><rect x="208" y="70" width="30" height="14" rx="3" fill="#818CF8" fill-opacity="0.79"/><rect x="264" y="70" width="30" height="14" rx="3" fill="#818CF8" fill-opacity="0.25"/><rect x="320" y="70" width="30" height="14" rx="3" fill="#818CF8" fill-opacity="0.43"/><rect x="376" y="70" width="30" height="14" rx="3" fill="#818CF8" fill-opacity="0.61"/><rect x="432" y="70" width="30" height="14" rx="3" fill="#818CF8" fill-opacity="0.79"/><rect x="488" y="70" width="30" height="14" rx="3" fill="#818CF8" fill-opacity="0.25"/><rect x="544" y="70" width="30" height="14" rx="3" fill="#818CF8" fill-opacity="0.43"/><rect x="600" y="70" width="30" height="14" rx="3" fill="#818CF8" fill-opacity="0.61"/><rect x="656" y="70" width="30" height="14" rx="3" fill="#818CF8" fill-opacity="0.79"/><rect x="712" y="70" width="30" height="14" rx="3" fill="#818CF8" fill-opacity="0.25"/><rect x="768" y="70" width="30" height="14" rx="3" fill="#818CF8" fill-opacity="0.43"/><rect x="40" y="106" width="30" height="14" rx="3" fill="#818CF8" fill-opacity="0.43"/><rect x="96" y="106" width="46" height="14" rx="3" fill="#818CF8" fill-opacity="0.61"/><rect x="152" y="106" width="62" height="14" rx="3" fill="#818CF8" fill-opacity="0.79"/><rect x="208" y="106" width="78" height="14" rx="3" fill="#818CF8" fill-opacity="0.25"/><rect x="264" y="106" width="30" height="14" rx="3" fill="#818CF8" fill-opacity="0.43"/><rect x="320" y="106" width="46" height="14" rx="3" fill="#818CF8" fill-opacity="0.61"/><rect x="376" y="106" width="62" height="14" rx="3" fill="#818CF8" fill-opacity="0.79"/><rect x="432" y="106" width="78" height="14" rx="3" fill="#818CF8" fill-opacity="0.25"/><rect x="488" y="106" width="30" height="14" rx="3" fill="#818CF8" fill-opacity="0.43"/><rect x="544" y="106" width="46" height="14" rx="3" fill="#818CF8" fill-opacity="0.61"/><rect x="600" y="106" width="62" height="14" rx="3" fill="#818CF8" fill-opacity="0.79"/><rect x="656" y="106" width="78" height="14" rx="3" fill="#818CF8" fill-opacity="0.25"/><rect x="712" y="106" width="30" height="14" rx="3" fill="#818CF8" fill-opacity="0.43"/><rect x="768" y="106" width="46" height="14" rx="3" fill="#818CF8" fill-opacity="0.61"/><rect x="40" y="142" width="30" height="14" rx="3" fill="#818CF8" fill-opacity="0.61"/><rect x="96" y="142" width="62" height="14" rx="3" fill="#818CF8" fill-opacity="0.79"/><rect x="152" y="142" width="30" height="14" rx="3" fill="#818CF8" fill-opacity="0.25"/><rect x="208" y="142" width="62" height="14" rx="3" fill="#818CF8" fill-opacity="0.43"/><rect x="264" y="142" width="30" height="14" rx="3" fill="#818CF8" fill-opacity="0.61"/><rect x="320" y="142" width="62" height="14" rx="3" fill="#818CF8" fill-opacity="0.79"/><rect x="376" y="142" width="30" height="14" rx="3" fill="#818CF8" fill-opacity="0.25"/><rect x="432" y="142" width="62" height="14" rx="3" fill="#818CF8" fill-opacity="0.43"/><rect x="488" y="142" width="30" height="14" rx="3" fill="#818CF8" fill-opacity="0.61"/><rect x="544" y="142" width="62" height="14" rx="3" fill="#818CF8" fill-opacity="0.79"/><rect x="600" y="142" width="30" height="14" rx="3" fill="#818CF8" fill-opacity="0.25"/><rect x="656" y="142" width="62" height="14" rx="3" fill="#818CF8" fill-opacity="0.43"/><rect x="712" y="142" width="30" height="14" rx="3" fill="#818CF8" fill-opacity="0.61"/><rect x="768" y="142" width="62" height="14" rx="3" fill="#818CF8" fill-opacity="0.79"/><rect x="40" y="178" width="30" height="14" rx="3" fill="#818CF8" fill-opacity="0.79"/><rect x="96" y="178" width="78" height="14" rx="3" fill="#818CF8" fill-opacity="0.25"/><rect x="152" y="178" width="62" height="14" rx="3" fill="#818CF8" fill-opacity="0.43"/><rect x="208" y="178" width="46" height="14" rx="3" fill="#818CF8" fill-opacity="0.61"/><rect x="264" y="178" width="30" height="14" rx="3" fill="#818CF8" fill-opacity="0.79"/><rect x="320" y="178" width="78" height="14" rx="3" fill="#818CF8" fill-opacity="0.25"/><rect x="376" y="178" width="62" height="14" rx="3" fill="#818CF8" fill-opacity="0.43"/><rect x="432" y="178" width="46" height="14" rx="3" fill="#818CF8" fill-opacity="0.61"/><rect x="488" y="178" width="30" height="14" rx="3" fill="#818CF8" fill-opacity="0.79"/><rect x="544" y="178" width="78" height="14" rx="3" fill="#818CF8" fill-opacity="0.25"/><rect x="600" y="178" width="62" height="14" rx="3" fill="#818CF8" fill-opacity="0.43"/><rect x="656" y="178" width="46" height="14" rx="3" fill="#818CF8" fill-opacity="0.61"/><rect x="712" y="178" width="30" height="14" rx="3" fill="#818CF8" fill-opacity="0.79"/><rect x="768" y="178" width="78" height="14" rx="3" fill="#818CF8" fill-opacity="0.25"/><rect x="40" y="214" width="30" height="14" rx="3" fill="#818CF8" fill-opacity="0.25"/><rect x="96" y="214" width="30" height="14" rx="3" fill="#818CF8" fill-opacity="0.43"/><rect x="152" y="214" width="30" height="14" rx="3" fill="#818CF8" fill-opacity="0.61"/><rect x="208" y="214" width="30" height="14" rx="3" fill="#818CF8" fill-opacity="0.79"/><rect x="264" y="214" width="30" height="14" rx="3" fill="#818CF8" fill-opacity="0.25"/><rect x="320" y="214" width="30" height="14" rx="3" fill="#818CF8" fill-opacity="0.43"/><rect x="376" y="214" width="30" height="14" rx="3" fill="#818CF8" fill-opacity="0.61"/><rect x="432" y="214" width="30" height="14" rx="3" fill="#818CF8" fill-opacity="0.79"/><rect x="488" y="214" width="30" height="14" rx="3" fill="#818CF8" fill-opacity="0.25"/><rect x="544" y="214" width="30" height="14" rx="3" fill="#818CF8" fill-opacity="0.43"/><rect x="600" y="214" width="30" height="14" rx="3" fill="#818CF8" fill-opacity="0.61"/><rect x="656" y="214" width="30" height="14" rx="3" fill="#818CF8" fill-opacity="0.79"/><rect x="712" y="214" width="30" height="14" rx="3" fill="#818CF8" fill-opacity="0.25"/><rect x="768" y="214" width="30" height="14" rx="3" fill="#818CF8" fill-opacity="0.43"/>
      </g>
      <path d="M 800 460 Q 800 540 800 540 Q 400 540 400 600" stroke="#818CF8" stroke-opacity="0.5" stroke-width="2" fill="none" stroke-dasharray="6 6"/>
      <g transform="translate(360, 580)">
        <rect width="880" height="260" rx="12" fill="url(#cardGrad)" stroke="#2A2A2C" stroke-width="1.5"/>
        <rect width="880" height="34" rx="12" fill="#161616" stroke="#2A2A2C"/>
        <circle cx="18" cy="17" r="4" fill="#787880" fill-opacity="0.4"/>
        <circle cx="32" cy="17" r="4" fill="#787880" fill-opacity="0.4"/>
        <circle cx="46" cy="17" r="4" fill="#787880" fill-opacity="0.4"/>
        <rect x="40" y="70" width="64" height="20" rx="3" fill="#6366F1" fill-opacity="0.3"/><rect x="120" y="70" width="64" height="20" rx="3" fill="#6366F1" fill-opacity="0.5"/><rect x="200" y="70" width="64" height="20" rx="3" fill="#6366F1" fill-opacity="0.7"/><rect x="280" y="70" width="64" height="20" rx="3" fill="#6366F1" fill-opacity="0.3"/><rect x="360" y="70" width="64" height="20" rx="3" fill="#6366F1" fill-opacity="0.5"/><rect x="440" y="70" width="64" height="20" rx="3" fill="#6366F1" fill-opacity="0.7"/><rect x="520" y="70" width="64" height="20" rx="3" fill="#6366F1" fill-opacity="0.3"/><rect x="600" y="70" width="64" height="20" rx="3" fill="#6366F1" fill-opacity="0.5"/><rect x="680" y="70" width="64" height="20" rx="3" fill="#6366F1" fill-opacity="0.7"/><rect x="760" y="70" width="64" height="20" rx="3" fill="#6366F1" fill-opacity="0.3"/><rect x="40" y="106" width="64" height="20" rx="3" fill="#6366F1" fill-opacity="0.5"/><rect x="120" y="106" width="64" height="20" rx="3" fill="#6366F1" fill-opacity="0.7"/><rect x="200" y="106" width="64" height="20" rx="3" fill="#6366F1" fill-opacity="0.3"/><rect x="280" y="106" width="64" height="20" rx="3" fill="#6366F1" fill-opacity="0.5"/><rect x="360" y="106" width="64" height="20" rx="3" fill="#6366F1" fill-opacity="0.7"/><rect x="440" y="106" width="64" height="20" rx="3" fill="#6366F1" fill-opacity="0.3"/><rect x="520" y="106" width="64" height="20" rx="3" fill="#6366F1" fill-opacity="0.5"/><rect x="600" y="106" width="64" height="20" rx="3" fill="#6366F1" fill-opacity="0.7"/><rect x="680" y="106" width="64" height="20" rx="3" fill="#6366F1" fill-opacity="0.3"/><rect x="760" y="106" width="64" height="20" rx="3" fill="#6366F1" fill-opacity="0.5"/><rect x="40" y="142" width="64" height="20" rx="3" fill="#6366F1" fill-opacity="0.7"/><rect x="120" y="142" width="64" height="20" rx="3" fill="#6366F1" fill-opacity="0.3"/><rect x="200" y="142" width="64" height="20" rx="3" fill="#6366F1" fill-opacity="0.5"/><rect x="280" y="142" width="64" height="20" rx="3" fill="#6366F1" fill-opacity="0.7"/><rect x="360" y="142" width="64" height="20" rx="3" fill="#6366F1" fill-opacity="0.3"/><rect x="440" y="142" width="64" height="20" rx="3" fill="#6366F1" fill-opacity="0.5"/><rect x="520" y="142" width="64" height="20" rx="3" fill="#6366F1" fill-opacity="0.7"/><rect x="600" y="142" width="64" height="20" rx="3" fill="#6366F1" fill-opacity="0.3"/><rect x="680" y="142" width="64" height="20" rx="3" fill="#6366F1" fill-opacity="0.5"/><rect x="760" y="142" width="64" height="20" rx="3" fill="#6366F1" fill-opacity="0.7"/><rect x="40" y="178" width="64" height="20" rx="3" fill="#6366F1" fill-opacity="0.3"/><rect x="120" y="178" width="64" height="20" rx="3" fill="#6366F1" fill-opacity="0.5"/><rect x="200" y="178" width="64" height="20" rx="3" fill="#6366F1" fill-opacity="0.7"/><rect x="280" y="178" width="64" height="20" rx="3" fill="#6366F1" fill-opacity="0.3"/><rect x="360" y="178" width="64" height="20" rx="3" fill="#6366F1" fill-opacity="0.5"/><rect x="440" y="178" width="64" height="20" rx="3" fill="#6366F1" fill-opacity="0.7"/><rect x="520" y="178" width="64" height="20" rx="3" fill="#6366F1" fill-opacity="0.3"/><rect x="600" y="178" width="64" height="20" rx="3" fill="#6366F1" fill-opacity="0.5"/><rect x="680" y="178" width="64" height="20" rx="3" fill="#6366F1" fill-opacity="0.7"/><rect x="760" y="178" width="64" height="20" rx="3" fill="#6366F1" fill-opacity="0.3"/><rect x="40" y="214" width="64" height="20" rx="3" fill="#6366F1" fill-opacity="0.5"/><rect x="120" y="214" width="64" height="20" rx="3" fill="#6366F1" fill-opacity="0.7"/><rect x="200" y="214" width="64" height="20" rx="3" fill="#6366F1" fill-opacity="0.3"/><rect x="280" y="214" width="64" height="20" rx="3" fill="#6366F1" fill-opacity="0.5"/><rect x="360" y="214" width="64" height="20" rx="3" fill="#6366F1" fill-opacity="0.7"/><rect x="440" y="214" width="64" height="20" rx="3" fill="#6366F1" fill-opacity="0.3"/><rect x="520" y="214" width="64" height="20" rx="3" fill="#6366F1" fill-opacity="0.5"/><rect x="600" y="214" width="64" height="20" rx="3" fill="#6366F1" fill-opacity="0.7"/><rect x="680" y="214" width="64" height="20" rx="3" fill="#6366F1" fill-opacity="0.3"/><rect x="760" y="214" width="64" height="20" rx="3" fill="#6366F1" fill-opacity="0.5"/>
      </g>
    
  <g transform="translate(800, 940)" text-anchor="middle">
    <text font-family="Geist, Inter, system-ui, sans-serif" font-size="14" letter-spacing="0.06em" fill="#787880" font-weight="600">
      FEATURE-I18N · PLACEHOLDER
    </text>
  </g>
</svg>