<svg xmlns="http://www.w3.org/2000/svg" width="1600" height="1000" viewBox="0 0 1600 1000" role="img" aria-label="feature-dashboard placeholder">
  <defs>
    <radialGradient id="glow" cx="50%" cy="40%" r="60%">
      <stop offset="0%" stop-color="#818CF8" stop-opacity="0.18"/>
      <stop offset="60%" stop-color="#818CF8" stop-opacity="0.03"/>
      <stop offset="100%" stop-color="#818CF8" stop-opacity="0"/>
    </radialGradient>
    <linearGradient id="cardGrad" x1="0" y1="0" x2="0" y2="1">
      <stop offset="0%" stop-color="#161616"/>
      <stop offset="100%" stop-color="#0A0A0A"/>
    </linearGradient>
  </defs>
  <rect width="1600" height="1000" fill="#0A0A0A"/>
  <rect width="1600" height="1000" fill="url(#glow)"/>
  
      <g transform="translate(250, 220)">
        <rect width="1100" height="560" rx="14" fill="url(#cardGrad)" stroke="#2A2A2C" stroke-width="1.5"/>
        <rect width="1100" height="48" fill="#161616" stroke="#2A2A2C"/>
        <text x="32" y="30" font-family="Geist, sans-serif" font-size="13" fill="#787880" font-weight="600">ccgauge — Overview</text>
        <rect x="32" y="76" width="252" height="100" rx="10" fill="#161616" stroke="#2A2A2C"/><rect x="48" y="96" width="40" height="10" rx="2" fill="#787880" fill-opacity="0.6"/><rect x="48" y="120" width="120" height="22" rx="3" fill="#818CF8" fill-opacity="0.5"/><rect x="302" y="76" width="252" height="100" rx="10" fill="#161616" stroke="#2A2A2C"/><rect x="318" y="96" width="40" height="10" rx="2" fill="#787880" fill-opacity="0.6"/><rect x="318" y="120" width="100" height="22" rx="3" fill="#818CF8" fill-opacity="0.6"/><rect x="572" y="76" width="252" height="100" rx="10" fill="#161616" stroke="#2A2A2C"/><rect x="588" y="96" width="40" height="10" rx="2" fill="#787880" fill-opacity="0.6"/><rect x="588" y="120" width="80" height="22" rx="3" fill="#818CF8" fill-opacity="0.7"/><rect x="842" y="76" width="252" height="100" rx="10" fill="#161616" stroke="#2A2A2C"/><rect x="858" y="96" width="40" height="10" rx="2" fill="#787880" fill-opacity="0.6"/><rect x="858" y="120" width="60" height="22" rx="3" fill="#818CF8" fill-opacity="0.8"/>
        <rect x="32" y="200" width="1036" height="320" rx="10" fill="#161616" stroke="#2A2A2C"/>
        <rect x="56" y="470" width="28" height="30" rx="3" fill="#818CF8" fill-opacity="0.4"/><rect x="98" y="451" width="28" height="49" rx="3" fill="#818CF8" fill-opacity="0.55"/><rect x="140" y="432" width="28" height="68" rx="3" fill="#818CF8" fill-opacity="0.7"/><rect x="182" y="413" width="28" height="87" rx="3" fill="#818CF8" fill-opacity="0.85"/><rect x="224" y="394" width="28" height="106" rx="3" fill="#818CF8" fill-opacity="0.4"/><rect x="266" y="375" width="28" height="125" rx="3" fill="#818CF8" fill-opacity="0.55"/><rect x="308" y="356" width="28" height="144" rx="3" fill="#818CF8" fill-opacity="0.7"/><rect x="350" y="337" width="28" height="163" rx="3" fill="#818CF8" fill-opacity="0.85"/><rect x="392" y="318" width="28" height="182" rx="3" fill="#818CF8" fill-opacity="0.4"/><rect x="434" y="299" width="28" height="201" rx="3" fill="#818CF8" fill-opacity="0.55"/><rect x="476" y="280" width="28" height="220" rx="3" fill="#818CF8" fill-opacity="0.7"/><rect x="518" y="261" width="28" height="239" rx="3" fill="#818CF8" fill-opacity="0.85"/><rect x="560" y="242" width="28" height="258" rx="3" fill="#818CF8" fill-opacity="0.4"/><rect x="602" y="223" width="28" height="277" rx="3" fill="#818CF8" fill-opacity="0.55"/><rect x="644" y="464" width="28" height="36" rx="3" fill="#818CF8" fill-opacity="0.7"/><rect x="686" y="445" width="28" height="55" rx="3" fill="#818CF8" fill-opacity="0.85"/><rect x="728" y="426" width="28" height="74" rx="3" fill="#818CF8" fill-opacity="0.4"/><rect x="770" y="407" width="28" height="93" rx="3" fill="#818CF8" fill-opacity="0.55"/><rect x="812" y="388" width="28" height="112" rx="3" fill="#818CF8" fill-opacity="0.7"/><rect x="854" y="369" width="28" height="131" rx="3" fill="#818CF8" fill-opacity="0.85"/><rect x="896" y="350" width="28" height="150" rx="3" fill="#818CF8" fill-opacity="0.4"/><rect x="938" y="331" width="28" height="169" rx="3" fill="#818CF8" fill-opacity="0.55"/><rect x="980" y="312" width="28" height="188" rx="3" fill="#818CF8" fill-opacity="0.7"/><rect x="1022" y="293" width="28" height="207" rx="3" fill="#818CF8" fill-opacity="0.85"/>
      </g>
    
  <g transform="translate(800, 940)" text-anchor="middle">
    <text font-family="Geist, Inter, system-ui, sans-serif" font-size="14" letter-spacing="0.06em" fill="#787880" font-weight="600">
      FEATURE-DASHBOARD · PLACEHOLDER
    </text>
  </g>
</svg>