<svg xmlns="http://www.w3.org/2000/svg" width="1600" height="1000" viewBox="0 0 1600 1000" role="img" aria-label="hero-dashboard placeholder">
  <defs>
    <radialGradient id="glow" cx="50%" cy="40%" r="60%">
      <stop offset="0%" stop-color="#818CF8" stop-opacity="0.18"/>
      <stop offset="60%" stop-color="#818CF8" stop-opacity="0.03"/>
      <stop offset="100%" stop-color="#818CF8" stop-opacity="0"/>
    </radialGradient>
    <linearGradient id="cardGrad" x1="0" y1="0" x2="0" y2="1">
      <stop offset="0%" stop-color="#161616"/>
      <stop offset="100%" stop-color="#0A0A0A"/>
    </linearGradient>
  </defs>
  <rect width="1600" height="1000" fill="#0A0A0A"/>
  <rect width="1600" height="1000" fill="url(#glow)"/>
  
      <g transform="translate(450, 240)">
        <rect width="700" height="440" rx="20" fill="url(#cardGrad)" stroke="#2A2A2C" stroke-width="1.5"/>
        <g transform="translate(40, 40)">
          <rect width="180" height="80" rx="10" fill="#161616" stroke="#2A2A2C"/>
          <rect x="200" width="180" height="80" rx="10" fill="#161616" stroke="#2A2A2C"/>
          <rect x="400" width="180" height="80" rx="10" fill="#161616" stroke="#2A2A2C"/>
        </g>
        <g transform="translate(40, 160)">
          <rect width="380" height="240" rx="10" fill="#161616" stroke="#2A2A2C"/>
          <rect x="20" y="190" width="14" height="30" rx="2" fill="#818CF8" fill-opacity="0.4"/><rect x="45" y="173" width="14" height="47" rx="2" fill="#818CF8" fill-opacity="0.52"/><rect x="70" y="156" width="14" height="64" rx="2" fill="#818CF8" fill-opacity="0.64"/><rect x="95" y="139" width="14" height="81" rx="2" fill="#818CF8" fill-opacity="0.76"/><rect x="120" y="122" width="14" height="98" rx="2" fill="#818CF8" fill-opacity="0.88"/><rect x="145" y="105" width="14" height="115" rx="2" fill="#818CF8" fill-opacity="0.4"/><rect x="170" y="88" width="14" height="132" rx="2" fill="#818CF8" fill-opacity="0.52"/><rect x="195" y="71" width="14" height="149" rx="2" fill="#818CF8" fill-opacity="0.64"/><rect x="220" y="54" width="14" height="166" rx="2" fill="#818CF8" fill-opacity="0.76"/><rect x="245" y="37" width="14" height="183" rx="2" fill="#818CF8" fill-opacity="0.88"/><rect x="270" y="190" width="14" height="30" rx="2" fill="#818CF8" fill-opacity="0.4"/><rect x="295" y="173" width="14" height="47" rx="2" fill="#818CF8" fill-opacity="0.52"/><rect x="320" y="156" width="14" height="64" rx="2" fill="#818CF8" fill-opacity="0.64"/><rect x="345" y="139" width="14" height="81" rx="2" fill="#818CF8" fill-opacity="0.76"/>
        </g>
        <g transform="translate(440, 160)">
          <rect width="220" height="240" rx="10" fill="#161616" stroke="#2A2A2C"/>
          <rect x="20" y="20" width="12" height="22" rx="3" fill="#818CF8" fill-opacity="0.08"/><rect x="36" y="20" width="12" height="22" rx="3" fill="#818CF8" fill-opacity="0.2709090909090909"/><rect x="52" y="20" width="12" height="22" rx="3" fill="#818CF8" fill-opacity="0.4618181818181818"/><rect x="68" y="20" width="12" height="22" rx="3" fill="#818CF8" fill-opacity="0.6527272727272727"/><rect x="84" y="20" width="12" height="22" rx="3" fill="#818CF8" fill-opacity="0.14363636363636362"/><rect x="100" y="20" width="12" height="22" rx="3" fill="#818CF8" fill-opacity="0.33454545454545453"/><rect x="116" y="20" width="12" height="22" rx="3" fill="#818CF8" fill-opacity="0.5254545454545454"/><rect x="132" y="20" width="12" height="22" rx="3" fill="#818CF8" fill-opacity="0.7163636363636363"/><rect x="148" y="20" width="12" height="22" rx="3" fill="#818CF8" fill-opacity="0.20727272727272728"/><rect x="164" y="20" width="12" height="22" rx="3" fill="#818CF8" fill-opacity="0.3981818181818182"/><rect x="180" y="20" width="12" height="22" rx="3" fill="#818CF8" fill-opacity="0.589090909090909"/><rect x="196" y="20" width="12" height="22" rx="3" fill="#818CF8" fill-opacity="0.08"/><rect x="20" y="48" width="12" height="22" rx="3" fill="#818CF8" fill-opacity="0.5254545454545454"/><rect x="36" y="48" width="12" height="22" rx="3" fill="#818CF8" fill-opacity="0.7163636363636363"/><rect x="52" y="48" width="12" height="22" rx="3" fill="#818CF8" fill-opacity="0.20727272727272728"/><rect x="68" y="48" width="12" height="22" rx="3" fill="#818CF8" fill-opacity="0.3981818181818182"/><rect x="84" y="48" width="12" height="22" rx="3" fill="#818CF8" fill-opacity="0.589090909090909"/><rect x="100" y="48" width="12" height="22" rx="3" fill="#818CF8" fill-opacity="0.08"/><rect x="116" y="48" width="12" height="22" rx="3" fill="#818CF8" fill-opacity="0.2709090909090909"/><rect x="132" y="48" width="12" height="22" rx="3" fill="#818CF8" fill-opacity="0.4618181818181818"/><rect x="148" y="48" width="12" height="22" rx="3" fill="#818CF8" fill-opacity="0.6527272727272727"/><rect x="164" y="48" width="12" height="22" rx="3" fill="#818CF8" fill-opacity="0.14363636363636362"/><rect x="180" y="48" width="12" height="22" rx="3" fill="#818CF8" fill-opacity="0.33454545454545453"/><rect x="196" y="48" width="12" height="22" rx="3" fill="#818CF8" fill-opacity="0.5254545454545454"/><rect x="20" y="76" width="12" height="22" rx="3" fill="#818CF8" fill-opacity="0.2709090909090909"/><rect x="36" y="76" width="12" height="22" rx="3" fill="#818CF8" fill-opacity="0.4618181818181818"/><rect x="52" y="76" width="12" height="22" rx="3" fill="#818CF8" fill-opacity="0.6527272727272727"/><rect x="68" y="76" width="12" height="22" rx="3" fill="#818CF8" fill-opacity="0.14363636363636362"/><rect x="84" y="76" width="12" height="22" rx="3" fill="#818CF8" fill-opacity="0.33454545454545453"/><rect x="100" y="76" width="12" height="22" rx="3" fill="#818CF8" fill-opacity="0.5254545454545454"/><rect x="116" y="76" width="12" height="22" rx="3" fill="#818CF8" fill-opacity="0.7163636363636363"/><rect x="132" y="76" width="12" height="22" rx="3" fill="#818CF8" fill-opacity="0.20727272727272728"/><rect x="148" y="76" width="12" height="22" rx="3" fill="#818CF8" fill-opacity="0.3981818181818182"/><rect x="164" y="76" width="12" height="22" rx="3" fill="#818CF8" fill-opacity="0.589090909090909"/><rect x="180" y="76" width="12" height="22" rx="3" fill="#818CF8" fill-opacity="0.08"/><rect x="196" y="76" width="12" height="22" rx="3" fill="#818CF8" fill-opacity="0.2709090909090909"/><rect x="20" y="104" width="12" height="22" rx="3" fill="#818CF8" fill-opacity="0.7163636363636363"/><rect x="36" y="104" width="12" height="22" rx="3" fill="#818CF8" fill-opacity="0.20727272727272728"/><rect x="52" y="104" width="12" height="22" rx="3" fill="#818CF8" fill-opacity="0.3981818181818182"/><rect x="68" y="104" width="12" height="22" rx="3" fill="#818CF8" fill-opacity="0.589090909090909"/><rect x="84" y="104" width="12" height="22" rx="3" fill="#818CF8" fill-opacity="0.08"/><rect x="100" y="104" width="12" height="22" rx="3" fill="#818CF8" fill-opacity="0.2709090909090909"/><rect x="116" y="104" width="12" height="22" rx="3" fill="#818CF8" fill-opacity="0.4618181818181818"/><rect x="132" y="104" width="12" height="22" rx="3" fill="#818CF8" fill-opacity="0.6527272727272727"/><rect x="148" y="104" width="12" height="22" rx="3" fill="#818CF8" fill-opacity="0.14363636363636362"/><rect x="164" y="104" width="12" height="22" rx="3" fill="#818CF8" fill-opacity="0.33454545454545453"/><rect x="180" y="104" width="12" height="22" rx="3" fill="#818CF8" fill-opacity="0.5254545454545454"/><rect x="196" y="104" width="12" height="22" rx="3" fill="#818CF8" fill-opacity="0.7163636363636363"/><rect x="20" y="132" width="12" height="22" rx="3" fill="#818CF8" fill-opacity="0.4618181818181818"/><rect x="36" y="132" width="12" height="22" rx="3" fill="#818CF8" fill-opacity="0.6527272727272727"/><rect x="52" y="132" width="12" height="22" rx="3" fill="#818CF8" fill-opacity="0.14363636363636362"/><rect x="68" y="132" width="12" height="22" rx="3" fill="#818CF8" fill-opacity="0.33454545454545453"/><rect x="84" y="132" width="12" height="22" rx="3" fill="#818CF8" fill-opacity="0.5254545454545454"/><rect x="100" y="132" width="12" height="22" rx="3" fill="#818CF8" fill-opacity="0.7163636363636363"/><rect x="116" y="132" width="12" height="22" rx="3" fill="#818CF8" fill-opacity="0.20727272727272728"/><rect x="132" y="132" width="12" height="22" rx="3" fill="#818CF8" fill-opacity="0.3981818181818182"/><rect x="148" y="132" width="12" height="22" rx="3" fill="#818CF8" fill-opacity="0.589090909090909"/><rect x="164" y="132" width="12" height="22" rx="3" fill="#818CF8" fill-opacity="0.08"/><rect x="180" y="132" width="12" height="22" rx="3" fill="#818CF8" fill-opacity="0.2709090909090909"/><rect x="196" y="132" width="12" height="22" rx="3" fill="#818CF8" fill-opacity="0.4618181818181818"/><rect x="20" y="160" width="12" height="22" rx="3" fill="#818CF8" fill-opacity="0.20727272727272728"/><rect x="36" y="160" width="12" height="22" rx="3" fill="#818CF8" fill-opacity="0.3981818181818182"/><rect x="52" y="160" width="12" height="22" rx="3" fill="#818CF8" fill-opacity="0.589090909090909"/><rect x="68" y="160" width="12" height="22" rx="3" fill="#818CF8" fill-opacity="0.08"/><rect x="84" y="160" width="12" height="22" rx="3" fill="#818CF8" fill-opacity="0.2709090909090909"/><rect x="100" y="160" width="12" height="22" rx="3" fill="#818CF8" fill-opacity="0.4618181818181818"/><rect x="116" y="160" width="12" height="22" rx="3" fill="#818CF8" fill-opacity="0.6527272727272727"/><rect x="132" y="160" width="12" height="22" rx="3" fill="#818CF8" fill-opacity="0.14363636363636362"/><rect x="148" y="160" width="12" height="22" rx="3" fill="#818CF8" fill-opacity="0.33454545454545453"/><rect x="164" y="160" width="12" height="22" rx="3" fill="#818CF8" fill-opacity="0.5254545454545454"/><rect x="180" y="160" width="12" height="22" rx="3" fill="#818CF8" fill-opacity="0.7163636363636363"/><rect x="196" y="160" width="12" height="22" rx="3" fill="#818CF8" fill-opacity="0.20727272727272728"/><rect x="20" y="188" width="12" height="22" rx="3" fill="#818CF8" fill-opacity="0.6527272727272727"/><rect x="36" y="188" width="12" height="22" rx="3" fill="#818CF8" fill-opacity="0.14363636363636362"/><rect x="52" y="188" width="12" height="22" rx="3" fill="#818CF8" fill-opacity="0.33454545454545453"/><rect x="68" y="188" width="12" height="22" rx="3" fill="#818CF8" fill-opacity="0.5254545454545454"/><rect x="84" y="188" width="12" height="22" rx="3" fill="#818CF8" fill-opacity="0.7163636363636363"/><rect x="100" y="188" width="12" height="22" rx="3" fill="#818CF8" fill-opacity="0.20727272727272728"/><rect x="116" y="188" width="12" height="22" rx="3" fill="#818CF8" fill-opacity="0.3981818181818182"/><rect x="132" y="188" width="12" height="22" rx="3" fill="#818CF8" fill-opacity="0.589090909090909"/><rect x="148" y="188" width="12" height="22" rx="3" fill="#818CF8" fill-opacity="0.08"/><rect x="164" y="188" width="12" height="22" rx="3" fill="#818CF8" fill-opacity="0.2709090909090909"/><rect x="180" y="188" width="12" height="22" rx="3" fill="#818CF8" fill-opacity="0.4618181818181818"/><rect x="196" y="188" width="12" height="22" rx="3" fill="#818CF8" fill-opacity="0.6527272727272727"/>
        </g>
      </g>
    
  <g transform="translate(800, 940)" text-anchor="middle">
    <text font-family="Geist, Inter, system-ui, sans-serif" font-size="14" letter-spacing="0.06em" fill="#787880" font-weight="600">
      HERO-DASHBOARD · PLACEHOLDER
    </text>
  </g>
</svg>