<svg xmlns="http://www.w3.org/2000/svg" width="1200" height="630" viewBox="0 0 1200 630" role="img" aria-label="og-cli placeholder">
  <defs>
    <radialGradient id="glow" cx="50%" cy="40%" r="60%">
      <stop offset="0%" stop-color="#818CF8" stop-opacity="0.18"/>
      <stop offset="60%" stop-color="#818CF8" stop-opacity="0.03"/>
      <stop offset="100%" stop-color="#818CF8" stop-opacity="0"/>
    </radialGradient>
    <linearGradient id="cardGrad" x1="0" y1="0" x2="0" y2="1">
      <stop offset="0%" stop-color="#161616"/>
      <stop offset="100%" stop-color="#0A0A0A"/>
    </linearGradient>
  </defs>
  <rect width="1200" height="630" fill="#0A0A0A"/>
  <rect width="1200" height="630" fill="url(#glow)"/>
  
      <g transform="translate(200, 200)">
        <rect width="800" height="240" rx="14" fill="#161616" stroke="#2A2A2C" stroke-width="2"/>
        <rect width="800" height="34" rx="14" fill="#0A0A0A" stroke="#2A2A2C"/>
        <circle cx="20" cy="17" r="5" fill="#F87171" fill-opacity="0.7"/>
        <circle cx="42" cy="17" r="5" fill="#FBBF24" fill-opacity="0.7"/>
        <circle cx="64" cy="17" r="5" fill="#4ADE80" fill-opacity="0.7"/>
        <text x="40" y="120" font-family="Geist Mono, monospace" font-size="36" fill="#FAFAFA">$ ccgauge report</text>
        <rect x="368" y="98" width="14" height="34" fill="#818CF8"/>
        <g transform="translate(40, 160)">
          <rect x="0" y="0" width="80" height="8" rx="2" fill="#818CF8" fill-opacity="0.8"/><rect x="0" y="14" width="170" height="8" rx="2" fill="#818CF8" fill-opacity="0.7000000000000001"/><rect x="0" y="28" width="260" height="8" rx="2" fill="#818CF8" fill-opacity="0.6000000000000001"/><rect x="0" y="42" width="350" height="8" rx="2" fill="#818CF8" fill-opacity="0.5"/><rect x="0" y="56" width="440" height="8" rx="2" fill="#818CF8" fill-opacity="0.4"/>
        </g>
      </g>
    
  <g transform="translate(600, 570)" text-anchor="middle">
    <text font-family="Geist, Inter, system-ui, sans-serif" font-size="14" letter-spacing="0.06em" fill="#787880" font-weight="600">
      OG-CLI · PLACEHOLDER
    </text>
  </g>
</svg>